<?xml version="1.0" encoding="UTF-8" standalone="no"?>
<svg
   xmlns:dc="http://purl.org/dc/elements/1.1/"
   xmlns:cc="http://creativecommons.org/ns#"
   xmlns:rdf="http://www.w3.org/1999/02/22-rdf-syntax-ns#"
   xmlns:svg="http://www.w3.org/2000/svg"
   xmlns="http://www.w3.org/2000/svg"
   xmlns:sodipodi="http://sodipodi.sourceforge.net/DTD/sodipodi-0.dtd"
   xmlns:inkscape="http://www.inkscape.org/namespaces/inkscape"
   version="1.0"
   width="109"
   height="44"
   viewBox="0 0 87.2 35.2"
   preserveAspectRatio="xMidYMid meet"
   id="svg2"
   inkscape:version="0.48.4 r9939"
   sodipodi:docname="LOGO-GRUPO-SURA.svg">
  <title
     id="title3034">Grupo Sura logo</title>
  <defs
     id="defs50" />
  <sodipodi:namedview
     pagecolor="#ffffff"
     bordercolor="#666666"
     borderopacity="1"
     objecttolerance="10"
     gridtolerance="10"
     guidetolerance="10"
     inkscape:pageopacity="0"
     inkscape:pageshadow="2"
     inkscape:window-width="1600"
     inkscape:window-height="844"
     id="namedview48"
     showgrid="false"
     inkscape:showpageshadow="false"
     inkscape:zoom="1"
     inkscape:cx="44.298541"
     inkscape:cy="27.060541"
     inkscape:window-x="-4"
     inkscape:window-y="-4"
     inkscape:window-maximized="1"
     inkscape:current-layer="svg2" />
  <metadata
     id="metadata4">
Created by potrace 1.13, written by Peter Selinger 2001-2015
<rdf:RDF>
  <cc:Work
     rdf:about="">
    <dc:format>image/svg+xml</dc:format>
    <dc:type
       rdf:resource="http://purl.org/dc/dcmitype/StillImage" />
    <dc:title>Grupo Sura logo</dc:title>
  </cc:Work>
</rdf:RDF>
</metadata>
  <g
     transform="matrix(0.00246743,0,0,-0.00246869,-1.4632847,41.713686)"
     id="g6"
     style="fill:#0055a0;fill-opacity:1;stroke:none">
    <path
       d="m 1573,16796 c -295,-56 -577,-248 -722,-493 -48,-82 -94,-214 -118,-343 -16,-85 -18,-161 -18,-700 0,-548 2,-614 19,-705 45,-245 119,-382 295,-547 182,-172 372,-259 622,-289 121,-14 307,-7 425,16 325,62 608,269 744,544 94,188 111,301 117,759 l 5,362 -571,0 -571,0 0,-210 0,-210 314,0 c 270,0 315,-2 326,-15 10,-12 11,-47 7,-144 -12,-221 -58,-349 -171,-468 -103,-109 -223,-170 -382,-193 -117,-17 -228,4 -354,66 -143,71 -222,159 -277,311 -47,130 -55,220 -60,646 -8,685 22,844 191,1013 152,153 365,209 580,154 218,-56 362,-195 440,-428 l 23,-67 246,-3 247,-2 0,37 c 0,66 -49,224 -105,338 -141,286 -377,477 -686,556 -107,28 -450,36 -566,15 z"
       id="path10"
       inkscape:connector-curvature="0"
       style="fill:#0055a0;fill-opacity:1" />
    <path
       d="m 12713,16795 c -212,-38 -421,-150 -579,-311 -113,-114 -194,-256 -232,-409 -44,-173 -47,-223 -47,-825 0,-617 4,-667 57,-845 57,-194 207,-384 406,-518 311,-209 792,-237 1149,-67 112,53 192,109 291,204 184,177 264,361 293,674 14,154 6,1158 -10,1252 -40,237 -102,367 -245,518 -168,177 -370,288 -595,327 -104,19 -387,18 -488,0 z m 376,-440 c 103,-25 231,-97 298,-169 92,-98 138,-206 165,-395 18,-123 18,-930 0,-1066 -26,-191 -73,-298 -177,-400 -150,-147 -380,-206 -575,-146 -266,81 -395,240 -441,546 -22,142 -19,975 3,1111 20,116 54,215 97,278 77,111 218,209 348,240 77,19 203,19 282,1 z"
       id="path12"
       inkscape:connector-curvature="0"
       style="fill:#0055a0;fill-opacity:1" />
    <path
       d="m 3590,15265 0,-1525 245,0 245,0 2,633 3,632 269,0 269,0 319,-632 320,-633 284,0 284,0 0,23 c 0,12 -152,314 -339,669 l -338,647 36,12 c 70,22 208,100 272,153 117,96 213,251 254,406 22,86 31,313 16,410 -16,101 -61,232 -107,310 -46,79 -187,224 -268,275 -108,69 -244,115 -397,135 -41,5 -365,10 -721,10 l -648,0 0,-1525 z m 1310,1061 c 152,-50 242,-120 295,-231 46,-95 62,-190 47,-279 -32,-198 -168,-332 -375,-371 -103,-20 -756,-22 -775,-3 -9,9 -12,123 -12,453 0,243 3,445 7,449 4,4 177,6 383,4 327,-4 382,-7 430,-22 z"
       id="path14"
       inkscape:connector-curvature="0"
       style="fill:#0055a0;fill-opacity:1" />
    <path
       d="m 6340,15723 c 0,-910 2,-1082 15,-1162 38,-230 119,-385 294,-554 195,-189 414,-278 721,-293 227,-12 434,27 615,115 272,133 452,353 537,658 22,78 22,81 25,1191 l 4,1112 -245,0 -245,0 -4,-1067 c -3,-992 -4,-1072 -21,-1127 -66,-219 -214,-365 -426,-422 -85,-22 -234,-23 -320,0 -97,25 -203,80 -270,143 -47,43 -71,76 -105,147 -85,174 -79,78 -83,1269 l -3,1057 -244,0 -245,0 0,-1067 z"
       id="path16"
       inkscape:connector-curvature="0"
       style="fill:#0055a0;fill-opacity:1" />
    <path
       d="m 9270,15266 0,-1526 245,0 245,0 2,593 3,592 445,6 c 415,5 451,7 528,27 278,73 475,229 596,469 114,229 125,552 26,815 -50,134 -188,299 -327,391 -85,57 -162,90 -293,125 l -95,26 -687,4 -688,3 0,-1525 z m 1300,1060 c 88,-29 187,-83 230,-126 46,-46 102,-153 120,-230 19,-81 15,-196 -10,-271 -51,-154 -148,-246 -315,-300 -67,-22 -88,-23 -438,-27 -278,-3 -371,-1 -382,8 -13,11 -15,84 -15,485 0,259 3,475 7,479 5,4 174,6 378,4 321,-4 377,-7 425,-22 z"
       id="path18"
       inkscape:connector-curvature="0"
       style="fill:#0055a0;fill-opacity:1" />
    <path
       d="m 27606,14794 c -18,-46 0,-329 30,-477 47,-236 176,-476 331,-617 212,-194 434,-307 2427,-1235 1752,-816 2310,-1078 2736,-1285 184,-89 436,-211 560,-270 124,-59 348,-167 499,-239 294,-142 333,-153 339,-100 2,15 -4,31 -15,41 -10,8 -551,348 -1203,753 -2670,1663 -3376,2099 -4285,2645 -390,235 -848,511 -1018,614 -275,166 -312,186 -351,186 -31,0 -46,-5 -50,-16 z"
       id="path20"
       inkscape:connector-curvature="0"
       style="fill:#00abc4;fill-opacity:0.99070907" />
    <path
       d="m 27344,12884 c -15,-60 47,-353 105,-498 50,-124 130,-238 255,-361 164,-163 315,-259 526,-338 52,-19 631,-175 1285,-347 2887,-756 4666,-1226 5379,-1421 354,-97 399,-103 404,-58 2,14 -3,30 -10,36 -26,22 -1833,716 -5838,2243 -877,335 -1689,645 -1805,689 -236,91 -290,101 -301,55 z"
       id="path22"
       inkscape:connector-curvature="0"
       style="fill:#00abc4;fill-opacity:1" />
    <path
       d="m 2900,12059 c -718,-32 -1294,-244 -1683,-618 -274,-264 -435,-577 -492,-956 -20,-133 -20,-474 0,-615 53,-371 192,-649 459,-916 253,-253 567,-434 1013,-584 98,-32 512,-147 920,-254 408,-108 770,-206 805,-219 260,-98 422,-230 516,-421 63,-127 85,-234 79,-381 -6,-142 -23,-211 -78,-324 -105,-213 -341,-362 -659,-415 -175,-29 -389,-35 -1605,-41 -665,-4 -1218,-9 -1227,-11 -17,-5 -18,-41 -18,-575 l 0,-569 1258,0 c 1261,0 1544,6 1767,35 1094,143 1792,752 1896,1655 15,130 6,512 -15,655 -60,403 -174,657 -405,897 -211,220 -465,371 -841,499 -80,28 -531,156 -1003,285 -473,129 -898,249 -945,266 -180,63 -352,165 -428,252 -127,145 -187,347 -165,551 35,309 199,505 496,594 179,53 176,53 1145,61 969,8 951,7 1150,61 389,106 632,348 720,721 22,94 40,236 40,321 l 0,57 -1267,-2 c -698,0 -1342,-5 -1433,-9 z"
       id="path24"
       inkscape:connector-curvature="0"
       style="fill:#0055a0;fill-opacity:1" />
    <path
       d="m 7130,9451 c 0,-2267 2,-2635 15,-2734 49,-377 198,-679 465,-947 387,-389 933,-613 1660,-681 174,-16 609,-13 785,6 985,104 1714,516 2032,1148 53,107 104,255 135,397 l 23,105 0,2135 c 0,2004 -1,2142 -18,2248 -35,222 -93,397 -172,518 -54,82 -198,222 -275,267 -168,97 -435,157 -707,157 l -63,0 0,-2439 c 0,-2676 4,-2519 -60,-2692 -162,-443 -669,-699 -1339,-676 -276,9 -489,56 -688,152 -134,64 -187,99 -272,179 -123,118 -210,278 -258,476 -13,57 -16,296 -24,1980 -5,1282 -12,1955 -19,2035 -28,296 -122,517 -290,685 -173,174 -383,260 -705,290 -60,5 -136,10 -167,10 l -58,0 0,-2619 z"
       id="path26"
       inkscape:connector-curvature="0"
       style="fill:#0055a0;fill-opacity:1" />
    <path
       d="m 16110,12059 c -530,-38 -1008,-205 -1372,-480 -112,-85 -298,-273 -385,-389 -259,-348 -407,-745 -480,-1290 -15,-113 -17,-338 -20,-2432 l -4,-2308 621,0 620,0 3,2288 c 4,2509 -1,2305 62,2537 120,443 432,752 871,864 181,46 253,52 694,61 439,8 509,14 680,59 395,104 617,358 679,776 5,39 13,127 17,198 l 7,127 -939,-1 c -516,-1 -991,-6 -1054,-10 z"
       id="path28"
       inkscape:connector-curvature="0"
       style="fill:#0055a0;fill-opacity:1" />
    <path
       d="m 21055,12063 c -209,-11 -527,-67 -730,-128 -1212,-366 -2030,-1394 -2224,-2796 -41,-300 -57,-660 -41,-964 18,-361 51,-601 125,-900 152,-619 411,-1096 809,-1490 431,-427 933,-659 1591,-737 163,-19 589,-16 745,6 321,44 581,121 829,245 307,155 594,399 779,665 40,56 42,57 51,35 5,-13 17,-60 26,-104 52,-238 171,-429 341,-546 161,-111 400,-168 757,-183 l 127,-6 0,3455 0,3455 -1562,-2 c -860,-1 -1590,-3 -1623,-5 z m 1843,-1145 c 16,-16 17,-2999 1,-3146 -63,-582 -328,-1060 -739,-1334 -629,-418 -1599,-351 -2130,149 -311,292 -513,762 -587,1363 -25,206 -25,772 0,980 86,693 284,1169 632,1515 294,293 666,450 1120,474 77,5 489,9 915,9 592,2 779,-1 788,-10 z"
       id="path30"
       inkscape:connector-curvature="0"
       style="fill:#0055a0;fill-opacity:1" />
    <path
       d="m 27897,10803 c -15,-14 -6,-96 17,-155 121,-324 381,-611 681,-752 86,-41 205,-81 265,-90 25,-3 1256,-85 2735,-181 1480,-97 3030,-198 3444,-225 415,-28 761,-48 769,-45 8,3 12,17 10,37 -3,28 -8,33 -39,40 -20,4 -711,126 -1535,272 -4505,797 -6263,1106 -6300,1106 -22,0 -44,-3 -47,-7 z"
       id="path32"
       inkscape:connector-curvature="0"
       style="fill:#00abc4;fill-opacity:1" />
    <path
       d="m 32205,8998 c -1265,-4 -2388,-11 -2495,-16 l -195,-7 -3,-37 c -10,-115 219,-412 422,-548 145,-97 287,-146 451,-156 97,-6 -131,-37 3622,491 1577,222 1504,211 1515,227 4,7 7,22 6,33 -3,20 -11,20 -513,21 -280,0 -1545,-3 -2810,-8 z"
       id="path34"
       inkscape:connector-curvature="0"
       style="fill:#00abc4;fill-opacity:1" />
    <path
       d="m 35040,8514 c -124,-35 -888,-233 -1810,-468 -750,-191 -1387,-356 -2018,-526 -145,-38 -265,-70 -267,-70 -13,0 -35,-36 -35,-57 0,-37 162,-295 230,-367 86,-91 111,-101 260,-101 106,0 136,4 195,24 225,77 3174,1321 3503,1478 91,43 93,45 90,76 -3,28 -7,32 -33,34 -16,1 -68,-9 -115,-23 z"
       id="path36"
       inkscape:connector-curvature="0"
       style="fill:#00abc4;fill-opacity:1" />
    <path
       d="m 34385,7668 c -624,-381 -1686,-1018 -2050,-1228 -495,-286 -665,-390 -673,-408 -7,-19 33,-380 49,-435 5,-21 26,-56 46,-78 34,-38 37,-39 100,-39 81,0 143,28 260,116 109,82 538,437 1726,1427 756,630 957,802 957,820 0,27 -18,47 -39,46 -9,0 -178,-100 -376,-221 z"
       id="path38"
       inkscape:connector-curvature="0"
       style="fill:#00abc3;fill-opacity:0.89019608" />
    <path
       d="m 33604,6194 c -67,-51 -253,-208 -1004,-849 -355,-303 -685,-584 -733,-625 -108,-91 -131,-135 -181,-335 -19,-78 -60,-214 -91,-304 -63,-184 -66,-214 -19,-219 27,-3 41,8 125,95 205,215 1306,1423 1768,1941 207,233 226,257 226,290 0,52 -28,54 -91,6 z"
       id="path40"
       inkscape:connector-curvature="0"
       style="fill:#00abc4;fill-opacity:1" />
    <path
       d="m 30860,4954 c -475,-162 -1307,-346 -2345,-518 -786,-131 -1201,-178 -2010,-226 -621,-37 -575,-31 -575,-83 0,-28 10,-44 63,-94 157,-151 383,-253 663,-299 132,-22 514,-25 694,-6 412,45 880,141 1460,302 525,145 1085,346 1597,573 186,83 534,255 641,317 49,28 53,34 50,63 -2,26 -8,32 -28,33 -14,1 -108,-27 -210,-62 z"
       id="path42"
       inkscape:connector-curvature="0"
       style="fill:#00abc4;fill-opacity:1" />
    <path
       d="m 31075,4544 c -85,-59 -262,-163 -435,-255 -812,-434 -2113,-853 -3299,-1065 -107,-19 -200,-39 -208,-45 -7,-6 -13,-24 -13,-39 0,-37 48,-77 156,-130 381,-189 1108,-130 1789,145 780,316 1505,748 1914,1140 149,143 201,208 201,251 0,31 -3,34 -27,33 -16,0 -50,-16 -78,-35 z"
       id="path44"
       inkscape:connector-curvature="0"
       style="fill:#00abc4;fill-opacity:1" />
    <path
       d="m 30954,3789 c -38,-43 -264,-226 -371,-301 -330,-232 -751,-446 -1178,-599 -158,-57 -160,-58 -163,-89 -5,-44 9,-56 102,-87 75,-25 94,-27 256,-27 196,-1 270,11 450,70 124,41 324,135 409,193 181,123 320,281 441,502 71,128 140,289 140,324 0,33 -2,35 -33,35 -22,0 -41,-8 -53,-21 z"
       id="path46"
       inkscape:connector-curvature="0"
       style="fill:#00abc4;fill-opacity:1" />
  </g>
</svg>
